<?xml version="1.0"?><svg xmlns="http://www.w3.org/2000/svg" xmlns:xlink="http://www.w3.org/1999/xlink" version="1.1" viewBox="0 0 512 512" style="enable-background:new 0 0 512 512;" xml:space="preserve"><g id="_x30_4_x2C__November_x2C__4_x2C__Calendar_Days_x2C__Time_and_Date_x2C__Date_x2C__Monthly_Calendar"><g id="XMLID_1658_"><g id="XMLID_1660_"><path id="XMLID_1689_" style="fill:#FFFFFF;" d="M503.5,88.5c0,9.03,0,85.7,0,167.5L254,277L8.5,256c0-81.8,0-158.47,0-167.5     c0-27.61,22.39-50,50-50h36.25l2,14.917l-2,10.713c-13.25,5.78-22.5,19-22.5,34.37c0,20.71,16.79,37.5,37.5,37.5     s37.5-16.79,37.5-37.5c0-15.37-9.25-28.59-22.5-34.37l-2-10.713l2-14.917H241l3,15l-3,10.62c-13.24,5.79-22.5,19-22.5,34.38     c0,20.71,16.79,37.5,37.5,37.5s37.5-16.79,37.5-37.5c0-15.38-9.26-28.59-22.5-34.38l-4.5-10.62l4.5-15h116.25l3.75,15     l-3.75,10.63c-13.25,5.78-22.5,19-22.5,34.37c0,20.71,16.79,37.5,37.5,37.5s37.5-16.79,37.5-37.5c0-15.37-9.25-28.59-22.5-34.37     L413.5,53.5l3.75-15h36.25C481.11,38.5,503.5,60.89,503.5,88.5z"/><path id="XMLID_1688_" style="fill:#FFFFFF;" d="M8.5,423.5v30c0,27.61,22.39,50,50,50h395c27.61,0,50-22.39,50-50v-30H8.5z"/><path id="XMLID_1686_" style="fill:#CDDCF9;" d="M503.5,376v47.5c0,27.61-22.39,50-50,50h-395c-27.61,0-50-22.39-50-50V376     c0-30.15,0-78.52,0-120h495C503.5,297.48,503.5,345.85,503.5,376z"/><path id="XMLID_1685_" style="fill:#CDDCF9;" d="M124.75,78.653V91c0,8.28-6.72,15-15,15s-15-6.72-15-15V78.653V38.5v-15     c0-8.28,6.72-15,15-15c4.14,0,7.89,1.68,10.61,4.4c2.71,2.71,4.39,6.46,4.39,10.6v15V78.653z"/><path id="XMLID_1684_" style="fill:#CDDCF9;" d="M271,79.12V91c0,8.28-6.72,15-15,15s-15-6.72-15-15V79.12V38.5v-15     c0-8.28,6.72-15,15-15c4.14,0,7.89,1.68,10.6,4.4c2.72,2.71,4.4,6.46,4.4,10.6v15V79.12z"/><path id="XMLID_1683_" style="fill:#CDDCF9;" d="M417.25,64.13V91c0,8.28-6.72,15-15,15s-15-6.72-15-15V64.13V38.5v-15     c0-8.28,6.72-15,15-15c4.14,0,7.89,1.68,10.61,4.4c2.71,2.71,4.39,6.46,4.39,10.6v15V64.13z"/><path id="XMLID_1672_" style="fill:#487FE9;" d="M453.5,31h-28.75v-7.5c0-12.407-10.094-22.5-22.5-22.5     c-12.406,0-22.5,10.093-22.5,22.5V31H278.5v-7.5C278.5,11.093,268.406,1,256,1c-12.407,0-22.5,10.093-22.5,22.5V31H132.25v-7.5     c0-12.407-10.093-22.5-22.5-22.5s-22.5,10.093-22.5,22.5V31H58.5C26.794,31,1,56.794,1,88.5c0,6.301,0,336.361,0,365     C1,485.206,26.794,511,58.5,511h395c31.706,0,57.5-25.794,57.5-57.5c0-19.168,0-357.186,0-365C511,56.794,485.206,31,453.5,31z      M394.75,23.5c0-4.136,3.364-7.5,7.5-7.5s7.5,3.364,7.5,7.5c0,14.086,0,48.57,0,67.5c0,4.136-3.364,7.5-7.5,7.5     s-7.5-3.364-7.5-7.5C394.75,71.571,394.75,36.687,394.75,23.5z M402.25,113.5c12.406,0,22.5-10.093,22.5-22.5V78.653     c4.74,5.375,7.5,12.388,7.5,19.847c0,16.542-13.458,30-30,30s-30-13.458-30-30c0-7.459,2.76-14.472,7.5-19.847V91     C379.75,103.407,389.844,113.5,402.25,113.5z M248.5,23.5c0-4.136,3.364-7.5,7.5-7.5c4.136,0,7.5,3.364,7.5,7.5     c0,1.631,0,59.212,0,67.5c0,4.136-3.364,7.5-7.5,7.5c-4.136,0-7.5-3.364-7.5-7.5C248.5,71.541,248.5,36.645,248.5,23.5z      M256,113.5c12.406,0,22.5-10.093,22.5-22.5V78.654c4.74,5.379,7.5,12.392,7.5,19.846c0,16.542-13.458,30-30,30s-30-13.458-30-30     c0-7.454,2.76-14.466,7.5-19.846V91C233.5,103.407,243.593,113.5,256,113.5z M102.25,23.5c0-4.136,3.364-7.5,7.5-7.5     s7.5,3.364,7.5,7.5c0,14.082,0,48.57,0,67.5c0,4.136-3.364,7.5-7.5,7.5s-7.5-3.364-7.5-7.5     C102.25,71.571,102.25,36.687,102.25,23.5z M109.75,113.5c12.407,0,22.5-10.093,22.5-22.5V78.653     c4.74,5.375,7.5,12.389,7.5,19.847c0,16.542-13.458,30-30,30s-30-13.458-30-30c0-7.459,2.76-14.472,7.5-19.847V91     C87.25,103.407,97.343,113.5,109.75,113.5z M453.5,496h-395c-20.015,0-36.832-13.912-41.317-32.571     C27.645,474.251,42.295,481,58.5,481h395c16.205,0,30.855-6.749,41.317-17.57C490.332,482.088,473.515,496,453.5,496z M496,423.5     c0,23.435-19.065,42.5-42.5,42.5h-395C35.065,466,16,446.935,16,423.5c0-18.32,0-141.478,0-160h480     C496,282.023,496,405.177,496,423.5z M496,248.5H16v-160C16,65.065,35.065,46,58.5,46h28.75v13.527     c-13.814,7.968-22.5,22.77-22.5,38.973c0,24.813,20.187,45,45,45s45-20.187,45-45c0-16.204-8.686-31.005-22.5-38.973V46H233.5     v13.521C219.686,67.5,211,82.305,211,98.5c0,24.813,20.187,45,45,45c24.814,0,45-20.187,45-45c0-16.195-8.686-31-22.5-38.979V46     h101.25v13.527c-13.814,7.968-22.5,22.77-22.5,38.973c0,24.813,20.186,45,45,45s45-20.187,45-45     c0-16.204-8.686-31.005-22.5-38.973V46h28.75c23.435,0,42.5,19.065,42.5,42.5V248.5z"/><path id="XMLID_1669_" style="fill:#487FE9;" d="M203.5,293.5c-24.814,0-45,20.187-45,45V391c0,24.813,20.186,45,45,45     s45-20.187,45-45v-52.5C248.5,313.687,228.314,293.5,203.5,293.5z M233.5,391c0,16.542-13.458,30-30,30s-30-13.458-30-30v-52.5     c0-16.542,13.458-30,30-30s30,13.458,30,30V391z"/><path id="XMLID_1666_" style="fill:#487FE9;" d="M346,376h-7.5v-75c0-3.249-2.092-6.128-5.181-7.132     c-3.09-1.005-6.474,0.093-8.385,2.721l-60,82.5c-1.659,2.281-1.898,5.301-0.618,7.814S268.179,391,271,391h52.5v37.5     c0,4.142,3.357,7.5,7.5,7.5s7.5-3.358,7.5-7.5V391h7.5c4.143,0,7.5-3.358,7.5-7.5S350.143,376,346,376z M323.5,376h-37.772     l37.772-51.936V376z"/><path id="XMLID_1663_" style="fill:#487FE9;" d="M255.999,158.5c-14.474,0-26.25,11.776-26.25,26.25v22.5     c0,14.474,11.776,26.25,26.25,26.25c14.474,0,26.25-11.776,26.25-26.25v-22.5C282.249,170.276,270.473,158.5,255.999,158.5z      M267.249,207.25c0,6.203-5.047,11.25-11.25,11.25c-6.203,0-11.25-5.047-11.25-11.25v-22.5c0-6.203,5.047-11.25,11.25-11.25     c6.203,0,11.25,5.047,11.25,11.25V207.25z"/><path id="XMLID_1662_" style="fill:#487FE9;" d="M206.749,158.5c-4.142,0-7.5,3.358-7.5,7.5v33.849l-23.64-37.824     c-1.773-2.837-5.209-4.155-8.428-3.234c-3.216,0.922-5.432,3.864-5.432,7.21v60c0,4.142,3.358,7.5,7.5,7.5     c4.142,0,7.5-3.358,7.5-7.5v-33.849l23.64,37.824c1.777,2.843,5.215,4.154,8.428,3.234c3.216-0.922,5.432-3.864,5.432-7.21v-60     C214.249,161.858,210.891,158.5,206.749,158.5z"/><path id="XMLID_1661_" style="fill:#487FE9;" d="M345.382,158.977c-3.879-1.454-8.202,0.511-9.656,4.389l-15.478,41.273     l-15.478-41.273c-1.454-3.878-5.778-5.842-9.656-4.389c-3.878,1.455-5.844,5.777-4.389,9.656l22.5,60     c1.098,2.927,3.896,4.867,7.022,4.867c3.126,0,5.925-1.939,7.022-4.867l22.5-60C351.226,164.755,349.261,160.432,345.382,158.977     z"/></g></g></g><g id="Layer_1"/></svg>