<?xml version="1.0" ?><svg xmlns="http://www.w3.org/2000/svg" xmlns:xlink="http://www.w3.org/1999/xlink" version="1.1" viewBox="0 0 512 512" style="enable-background:new 0 0 512 512;" xml:space="preserve"><path style="fill:#D25267;" d="M422.53,361.36L391,351H121l-31.52,10.36c-34.31,11.75-57.36,44-57.36,80.26V451     c0.108,0.08,73.78,54.925,73.88,55h125l25.003-15L281,506h125l73.88-55v-9.38C479.88,405.36,456.83,373.11,422.53,361.36z"/><path style="fill:#E8C1B8;" d="M156.6,186c-8.62,0-15.6-6.98-15.6-15.6v-3.8c0-8.62,6.98-15.6,15.6-15.6h9.85l8.425,17.5     L166.45,186C166.232,186,156.478,186,156.6,186z"/><path style="fill:#D25267;" d="M176,116V87.3C176,42.4,212.4,6,257.3,6h52.4C354.6,6,391,42.4,391,87.3v59.13l-20,20.17L176,116z     "/><path style="fill:#E8C1B8;" d="M371,166.6v3.8c0,8.583-6.934,15.6-15.6,15.6h-9.62L337,168.5l8.55-17.5h9.85     C363.951,151,371,157.938,371,166.6z"/><path style="fill:#EFCEC5;" d="M166.45,151l89.545-14.25L345.4,151c0.05,0,0.1,0,0.15,0c0.001,0.102,0.235,35.1,0.23,35     c0.28,8.47,0.49,26.9-1.75,48.87c-8.53,65.38-168.03,61.63-176.07-0.01c-2.24-21.97-2.03-40.39-1.75-48.86L166.45,151z"/><path style="fill:#E8C1B8;" d="M271,201c0,1.91-0.54,3.7-1.48,5.22c-0.41,0.68-0.9,1.3-1.45,1.85c-1.81,1.81-4.31,2.93-7.07,2.93     h-10c-3.61,0-6.77-1.91-8.52-4.78c-0.94-1.52-1.48-3.31-1.48-5.22c0-2.76,1.12-5.26,2.93-7.07c1.81-1.81,4.31-2.93,7.07-2.93h10     C266.52,191,271,195.48,271,201z"/><polygon style="fill:#EBF0FA;" points="479.88,451 479.88,476 442.94,491 406,476 406,451    "/><polygon style="fill:#EBF0FA;" points="106,451 106,476 69.06,491 32.12,476 32.12,451    "/><rect x="231" y="437.667" style="fill:#E6C34F;" width="50" height="68.333"/><path style="fill:#D9E2F5;" d="M121,350.99c-3.991-4.878-8.206-13.851-9.47-22.7c0-0.619-4.347-21.873,11.99-40.37     c-4.309-24.022,11.076-46.58,34.16-51.84L256,247.25l98.32-11.17c23.133,5.271,38.461,27.864,34.16,51.84     c15.636,17.691,16.799,44.031,2.52,63.07V351c0,27.51-22.22,49.82-49.68,49.99c-6.8,13.68-20.34,23.4-36.28,24.82h-0.01     C300.379,449.067,279.953,466,256,466c-23.869,0-44.362-16.851-49.03-40.19h-0.01c-15.94-1.42-29.48-11.14-36.28-24.82     C143.22,400.82,121,378.51,121,351V350.99z"/><path style="fill:#EBF0FA;" d="M360,229.55c0,0-1.95,2.67-5.68,6.53c-13.15,13.59-48.45,41.91-98.32,19.47     c-49.87,22.44-85.17-5.88-98.32-19.47c-3.73-3.86-5.68-6.53-5.68-6.53s6.82,3.41,15.96,5.31c0.17,0.04,0.34,0.08,0.51,0.11     c0.01,0,0.01,0,0.02,0c2.9,0.59,6.02,1.01,9.22,1.12h0.01c10.3,0.36,21.43-2.52,28.68-13.74c9.81-15.18,25.07-17.13,36.08-16.13     c1.75,2.87,4.91,4.78,8.52,4.78h10c2.76,0,5.26-1.12,7.07-2.93c0.55-0.55,1.04-1.17,1.45-1.85c11.01-1,26.27,0.95,36.08,16.13     c9.64,14.92,26.13,15.09,38.43,12.52C353.17,232.96,360,229.55,360,229.55z"/><circle style="fill:#EBF0FA;" cx="386" cy="176" r="30"/><path style="fill:#EBF0FA;" d="M356,126.6v13.8c0,5.8-4.67,10.52-10.45,10.6c-0.05,0-0.1,0-0.15,0H166.6c-0.05,0-0.1,0-0.15,0     c-5.78-0.08-10.45-4.8-10.45-10.6v-13.8c0-5.85,4.75-10.6,10.6-10.6h9.4h160h9.4C351.25,116,356,120.75,356,126.6z"/><rect x="406" y="476" style="fill:#EFCEC5;" width="73.88" height="30"/><rect x="32.12" y="476" style="fill:#EFCEC5;" width="73.88" height="30"/><path d="M221,191c2.762,0,5-2.238,5-5v-5c0-2.762-2.238-5-5-5s-5,2.238-5,5v5C216,188.762,218.238,191,221,191z"/><path d="M291,191c2.762,0,5-2.238,5-5v-5c0-2.762-2.238-5-5-5s-5,2.238-5,5v5C286,188.762,288.238,191,291,191z"/><path d="M424.091,356.61l-25.342-8.327c11.243-19.561,9.286-44.211-4.983-61.854c2.964-22.655-9.472-44.261-30.607-52.795     c0.548-0.687,0.847-1.092,0.879-1.136c3.07-4.204-1.584-9.741-6.266-7.426c-0.045,0.022-3.271,1.604-8.113,3.143     c1.26-15.354,1.385-28.509,1.242-37.216h3.502c5.737,12.094,17.984,20,31.596,20c19.299,0,35-15.701,35-35     c0-15.732-10.308-29.226-25-33.54V87.3C396,39.714,357.286,1,309.7,1h-52.4C209.714,1,171,39.714,171,87.3V111h-4.4     c-8.602,0-15.6,6.998-15.6,15.6V140.4c0,2.149,0.446,4.201,1.246,6.072C142.973,148.477,136,156.735,136,166.6v3.801     c0,11.358,9.241,20.6,20.6,20.6h4.489c-0.143,8.699-0.018,21.852,1.243,37.212c-4.837-1.535-8.055-3.114-8.095-3.134     c-4.667-2.336-9.356,3.2-6.274,7.421c0.032,0.043,0.331,0.449,0.879,1.136c-21.063,8.505-33.583,30.061-30.607,52.799     c-14.845,18.352-15.73,43.475-5.116,61.625c0.04,0.078,0.087,0.15,0.129,0.227L87.86,356.63     c-36.33,12.442-60.74,46.597-60.74,84.99V506c0,2.762,2.238,5,5,5c15.152,0,432.356,0,447.76,0c2.762,0,5-2.238,5-5v-64.38     C484.88,403.229,460.475,369.073,424.091,356.61z M411,456h63.88v15H411V456z M474.88,441.62V446H411v-2.01c0-2.762-2.238-5-5-5     s-5,2.238-5,5V501H286v-38.922c10.924-7.124,19.266-17.894,23.109-31.749c14.707-2.429,27.783-11.48,35.255-24.439     c26.476-1.61,47.982-22.13,51.203-48.126l25.343,8.327C453.191,377.149,474.88,407.502,474.88,441.62z M258.052,250.99     c-1.282-0.573-2.871-0.553-4.104,0c-38.779,17.447-68.275,2.223-84.279-10.723c16.598,2.803,31.838-1.131,40.93-15.204     c6.422-9.937,16.264-14.637,29.277-14.005C242.685,214.19,246.677,216,251,216h10c4.106,0,8.087-1.625,11.09-4.939     c13.027-0.641,22.884,4.058,29.311,14.003c8.333,12.896,22.797,18.244,40.925,15.214     C326.314,253.223,296.818,268.432,258.052,250.99z M366,166.6v3.801c0,5.235-3.893,9.746-9.013,10.485     c-1.385,0.188-1.676,0.084-6.428,0.114c-0.117-1.867-0.002,6.824-0.01-25h4.851C361.202,156,366,160.702,366,166.6z      M339.417,230.604c-13.648,2.006-23.607-1.665-29.619-10.968c-9.188-14.219-22.458-18.261-33.8-18.61     c0-0.009,0.001-0.017,0.001-0.026c0-8.271-6.729-15-15-15h-10c-8.271,0-15,6.698-15,15c0,0.008,0.001,0.017,0.001,0.025     c-11.344,0.348-24.61,4.39-33.8,18.611c-5.304,8.209-14.511,13.155-29.628,10.962c-1.692-18.557-1.097-10.088-1.123-74.598h169.1     C340.519,210.803,341.248,210.516,339.417,230.604z M246.732,203.589C246.253,202.814,246,201.92,246,201     c0-1.334,0.521-2.59,1.464-3.534C248.41,196.521,249.666,196,251,196h10c2.757,0,5,2.243,5,5c0,0.92-0.253,1.814-0.732,2.589     c-0.011,0.018-0.022,0.036-0.033,0.055c-0.191,0.317-0.428,0.618-0.698,0.891C263.59,205.479,262.334,206,261,206h-10     C249.248,206,247.659,205.109,246.732,203.589z M411,176c0,13.785-11.215,25-25,25c-8.907,0-16.994-4.741-21.44-12.174     c6.809-3.414,11.44-10.481,11.44-18.425c-0.232-2.197,1.097-8.566-3.571-15.395C388.693,144.425,411,155.882,411,176z M181,87.3     c0-42.072,34.228-76.3,76.3-76.3h52.4c42.072,0,76.3,34.228,76.3,76.3V141c-7.793,0-15.218,2.553-21.297,7.244     c-1.568-0.795-3.232-1.386-4.954-1.759c2.025-4.729,0.945-7.611,1.251-19.885c0-8.602-6.998-15.6-15.6-15.6H341V86     c0-14.138-6.575-26.764-16.821-35H331c2.762,0,5-2.238,5-5s-2.238-5-5-5c-45.2,0.032-24.709-0.067-70,0.1c-2.762,0-5,2.238-5,5     s2.238,5,5,5h35.1c19.244,0,34.9,15.656,34.9,34.9v25H181V87.3z M161,126.6c0-3.088,2.512-5.6,5.6-5.6H345.4     c3.088,0,5.6,2.512,5.6,5.6V140.4c0,3.036-2.461,5.542-5.491,5.6H166.52c-3.044-0.042-5.52-2.554-5.52-5.6V126.6z M146,170.4     V166.6c0-5.845,4.755-10.6,10.6-10.6h4.851v24.692c-0.003,0.038-0.009,0.137-0.019,0.308H156.6     C150.755,181,146,176.245,146,170.4z M127.268,291.229c1.018-1.153,1.423-2.808,1.174-4.191     c-3.613-20.146,8.202-39.552,27.734-45.386c26.779,26.1,62.243,35.392,99.824,19.351c37.414,15.972,72.903,6.884,99.824-19.351     c16.795,5.017,28.319,20.289,28.374,38.062c-5.075-3.476-10.841-6.052-17.092-7.469c-2.692-0.619-5.371,1.078-5.981,3.771     c-0.61,2.693,1.077,5.371,3.771,5.981C382.542,285.996,396,301.803,396,321c0,9.677-3.033,18.899-8.772,26.669     C386.473,348.706,386,349.672,386,351c0,24.655-20.057,44.838-44.711,44.99c-1.887,0.012-3.606,1.085-4.446,2.774     c-5.203,10.465-14.836,18.105-25.98,20.966c0.333-4.922,0.021-9.853-0.973-14.729c-0.551-2.705-3.185-4.448-5.897-3.901     c-2.706,0.551-4.452,3.191-3.901,5.897C305.744,434.751,284.536,461,256,461c-28.659,0-49.73-26.313-44.091-54.002     c0.551-2.706-1.195-5.347-3.901-5.897c-2.717-0.548-5.348,1.196-5.897,3.901c-0.993,4.875-1.306,9.805-0.972,14.729     c-11.145-2.862-20.778-10.501-25.981-20.967c-0.84-1.689-2.56-2.763-4.446-2.774c-19.681-0.122-36.42-13.013-42.377-30.754     c2.722,2.015,5.621,3.787,8.664,5.263c2.49,1.207,5.478,0.162,6.681-2.317c1.205-2.485,0.167-5.477-2.317-6.681     c-6.409-3.107-12.066-7.778-16.359-13.509C112.456,331.431,112.856,307.549,127.268,291.229z M91.042,366.11l25.391-8.346     c3.222,25.995,24.727,46.515,51.203,48.125c7.472,12.959,20.548,22.011,35.255,24.439c0.318,0.631,4.028,19.303,23.109,31.749     V501H111v-57.01c0-2.762-2.238-5-5-5s-5,2.238-5,5V446H37.12v-4.38C37.12,407.501,58.813,377.147,91.042,366.11z M37.12,456H101     v15H37.12V456z M37.12,481H101v20H37.12V481z M236,467.235c4.798,1.87,9.85,3.063,15,3.532V476c0,2.762,2.238,5,5,5s5-2.238,5-5     v-5.233c5.15-0.469,10.202-1.662,15-3.532V501h-40V467.235z M411,501v-20h63.88v20H411z"/></svg>