<?xml version="1.0"?><svg xmlns="http://www.w3.org/2000/svg" xmlns:xlink="http://www.w3.org/1999/xlink" version="1.1" viewBox="0 0 512 512" style="enable-background:new 0 0 512 512;" xml:space="preserve"><g id="_x30_4_x2C__November_x2C__4_x2C__Calendar_Days_x2C__Time_and_Date_x2C__Date_x2C__Monthly_Calendar"><g id="XMLID_1658_"><g id="XMLID_1660_"><path id="XMLID_1683_" style="fill:#CDDCF9;" d="M417.25,64.13V91c0,8.28-6.72,15-15,15s-15-6.72-15-15V64.13V38.5v-15     c0-8.28,6.72-15,15-15c4.14,0,7.89,1.68,10.61,4.4c2.71,2.71,4.39,6.46,4.39,10.6v15V64.13z"/><path id="XMLID_1672_" style="fill:#487FE9;" d="M453.5,31h-28.75v-7.5c0-12.407-10.094-22.5-22.5-22.5     c-12.406,0-22.5,10.093-22.5,22.5V31H278.5v-7.5C278.5,11.093,268.406,1,256,1c-12.407,0-22.5,10.093-22.5,22.5V31H132.25v-7.5     c0-12.407-10.093-22.5-22.5-22.5s-22.5,10.093-22.5,22.5V31H58.5C26.794,31,1,56.794,1,88.5c0,6.301,0,336.361,0,365     C1,485.206,26.794,511,58.5,511h395c31.706,0,57.5-25.794,57.5-57.5c0-19.168,0-357.186,0-365C511,56.794,485.206,31,453.5,31z      M394.75,23.5c0-4.136,3.364-7.5,7.5-7.5s7.5,3.364,7.5,7.5c0,14.086,0,48.57,0,67.5c0,4.136-3.364,7.5-7.5,7.5     s-7.5-3.364-7.5-7.5C394.75,71.571,394.75,36.687,394.75,23.5z M402.25,113.5c12.406,0,22.5-10.093,22.5-22.5V78.653     c4.74,5.375,7.5,12.388,7.5,19.847c0,16.542-13.458,30-30,30s-30-13.458-30-30c0-7.459,2.76-14.472,7.5-19.847V91     C379.75,103.407,389.844,113.5,402.25,113.5z M248.5,23.5c0-4.136,3.364-7.5,7.5-7.5c4.136,0,7.5,3.364,7.5,7.5     c0,1.631,0,59.212,0,67.5c0,4.136-3.364,7.5-7.5,7.5c-4.136,0-7.5-3.364-7.5-7.5C248.5,71.541,248.5,36.645,248.5,23.5z      M256,113.5c12.406,0,22.5-10.093,22.5-22.5V78.654c4.74,5.379,7.5,12.392,7.5,19.846c0,16.542-13.458,30-30,30s-30-13.458-30-30     c0-7.454,2.76-14.466,7.5-19.846V91C233.5,103.407,243.593,113.5,256,113.5z M102.25,23.5c0-4.136,3.364-7.5,7.5-7.5     s7.5,3.364,7.5,7.5c0,14.082,0,48.57,0,67.5c0,4.136-3.364,7.5-7.5,7.5s-7.5-3.364-7.5-7.5     C102.25,71.571,102.25,36.687,102.25,23.5z M109.75,113.5c12.407,0,22.5-10.093,22.5-22.5V78.653     c4.74,5.375,7.5,12.389,7.5,19.847c0,16.542-13.458,30-30,30s-30-13.458-30-30c0-7.459,2.76-14.472,7.5-19.847V91     C87.25,103.407,97.343,113.5,109.75,113.5z M453.5,496h-395c-20.015,0-36.832-13.912-41.317-32.571     C27.645,474.251,42.295,481,58.5,481h395c16.205,0,30.855-6.749,41.317-17.57C490.332,482.088,473.515,496,453.5,496z M496,423.5     c0,23.435-19.065,42.5-42.5,42.5h-395C35.065,466,16,446.935,16,423.5c0-18.32,0-141.478,0-160h480     C496,282.023,496,405.177,496,423.5z M496,248.5H16v-160C16,65.065,35.065,46,58.5,46h28.75v13.527     c-13.814,7.968-22.5,22.77-22.5,38.973c0,24.813,20.187,45,45,45s45-20.187,45-45c0-16.204-8.686-31.005-22.5-38.973V46H233.5     v13.521C219.686,67.5,211,82.305,211,98.5c0,24.813,20.187,45,45,45c24.814,0,45-20.187,45-45c0-16.195-8.686-31-22.5-38.979V46     h101.25v13.527c-13.814,7.968-22.5,22.77-22.5,38.973c0,24.813,20.186,45,45,45s45-20.187,45-45     c0-16.204-8.686-31.005-22.5-38.973V46h28.75c23.435,0,42.5,19.065,42.5,42.5V248.5z"/></g></g></g><g id="Layer_1"/></svg>